<?xml version="1.0" encoding="UTF-8"?>
<!DOCTYPE svg PUBLIC "-//W3C//DTD SVG 1.1//EN" "http://www.w3.org/Graphics/SVG/1.1/DTD/svg11.dtd">
<!-- Creator: CorelDRAW -->
<svg xmlns="http://www.w3.org/2000/svg" xml:space="preserve" width="197.203mm" height="61.545mm" version="1.1" style="shape-rendering:geometricPrecision; text-rendering:geometricPrecision; image-rendering:optimizeQuality; fill-rule:evenodd; clip-rule:evenodd"
viewBox="0 0 10396 3244.49"
 xmlns:xlink="http://www.w3.org/1999/xlink"
 xmlns:xodm="http://www.corel.com/coreldraw/odm/2003">
 <defs>
  <style type="text/css">
   <![CDATA[
    .fil0 {fill:white;fill-rule:nonzero}
   ]]>
  </style>
 </defs>
 <g id="Layer_x0020_1">
  <metadata id="CorelCorpID_0Corel-Layer"/>
  <path class="fil0" d="M5478.92 815.18c0,116.92 -94.18,211.11 -211.1,211.11 -116.92,0 -211.1,-94.18 -211.1,-211.11 0,-116.92 90.94,-211.1 211.1,-211.1 120.17,3.25 211.1,97.43 211.1,211.1zm-5478.92 1722.21l0 38.24c0.71,25.84 2.88,51.73 6.49,77.77 35.73,243.58 198.11,448.19 422.21,539.12 84.44,35.72 172.13,51.96 263.06,51.96 25.98,0 58.46,-3.25 84.44,-6.49 107.17,-12.99 217.6,-48.72 324.77,-110.42 133.16,-74.7 259.82,-181.87 402.72,-337.77 142.9,155.9 272.81,263.07 402.72,337.77 107.17,61.71 217.6,97.43 324.77,110.42 25.98,3.25 58.46,6.49 84.44,6.49 90.94,0 181.87,-16.24 263.06,-51.96 227.34,-90.94 386.48,-298.79 422.21,-539.12 25.98,-113.67 12.99,-227.34 -29.23,-347.51 -16.24,-38.97 -32.47,-81.2 -48.71,-116.92 -25.98,-58.46 -51.97,-113.67 -74.7,-165.63l-3.25 -3.25c-224.1,-487.16 -464.42,-980.82 -717.75,-1467.98l-9.74 -19.49c-25.98,-48.71 -51.96,-100.67 -77.94,-152.64 -32.48,-58.46 -64.96,-120.16 -116.92,-178.62 -103.93,-129.91 -253.32,-201.36 -412.46,-201.36 -162.39,0 -308.54,71.45 -415.71,194.86 -48.72,58.46 -84.44,120.16 -116.92,178.62 -25.98,51.96 -51.96,103.93 -77.95,152.64l-9.74 19.49c-250.07,487.16 -493.66,980.82 -717.75,1467.97l-3.25 6.5c-22.73,51.96 -48.72,107.17 -74.7,165.63 -16.24,35.73 -32.48,74.7 -48.72,116.92 -28.17,80.17 -43.32,157.45 -45.47,234.74zm4608.53 -1296.75c0,19.49 0,51.96 0,51.96 0,0 -100.68,-129.91 -315.03,-129.91 -354,0 -630.06,269.56 -630.06,643.05 0,370.24 272.81,643.05 630.06,643.05 217.6,0 315.03,-133.16 315.03,-133.16l0 55.21c0,25.98 19.48,45.47 45.47,45.47l263.06 0 0 -1221.15c0,0 -240.33,0 -263.06,0 -25.98,0 -45.47,22.73 -45.47,45.47zm0 782.7c-48.72,71.45 -146.15,133.16 -263.07,133.16 -207.85,0 -366.99,-129.91 -366.99,-350.75 0,-220.85 159.14,-350.76 366.99,-350.76 113.67,0 217.6,64.96 263.07,133.16l0 435.2zm503.4 -828.17l311.78 0 0 1221.15 -311.78 0 0 -1221.15zm4657.25 -32.47c-214.35,0 -315.03,129.91 -315.03,129.91l0 -685.27 -311.78 0 0 1808.99c0,0 240.33,0 263.06,0 25.98,0 45.47,-22.74 45.47,-45.47l0 -55.21 0 0c0,0 100.68,133.16 315.03,133.16 354,0 630.06,-272.81 630.06,-643.05 0.01,-370.24 -276.05,-643.05 -626.81,-643.05zm-51.96 990.56c-120.16,0 -214.35,-61.71 -263.07,-133.16l0 -435.2c48.72,-64.95 152.65,-133.16 263.07,-133.16 207.85,0 366.99,129.91 366.99,350.76 0,220.84 -159.14,350.75 -366.99,350.75zm-737.24 -461.18l0 727.49 -311.79 0 0 -691.77c0,-201.36 -64.95,-282.55 -240.33,-282.55 -94.18,0 -191.62,48.72 -253.32,120.16l0 850.91 -311.79 0 0 -1221.15 246.83 0c25.98,0 45.47,22.73 45.47,45.47l0 51.96c90.94,-94.18 211.1,-129.91 331.27,-129.91 136.41,0 250.07,38.97 341.01,116.92 110.43,90.94 152.65,207.85 152.65,412.46zm-1873.94 -529.38c-214.35,0 -315.03,129.91 -315.03,129.91l0 -685.27 -311.78 0 0 1808.99c0,0 240.33,0 263.06,0 25.98,0 45.47,-22.74 45.47,-45.47l0 -55.21 0 0c0,0 100.68,133.16 315.03,133.16 354,0 630.06,-272.81 630.06,-643.05 3.25,-370.24 -272.81,-643.05 -626.81,-643.05zm-51.96 990.56c-120.17,0 -214.35,-61.71 -263.07,-133.16l0 -435.2c48.72,-64.95 152.64,-133.16 263.07,-133.16 207.85,0 366.99,129.91 366.99,350.76 0,220.84 -159.14,350.75 -366.99,350.75zm-844.41 -990.56c94.18,0 142.9,16.24 142.9,16.24l0 289.04c0,0 -259.82,-87.68 -422.2,97.43l0 854.16 -311.79 0 0 -1224.4c0,0 240.33,0 263.07,0 25.98,0 45.46,22.73 45.46,45.47l0 51.96c58.46,-68.21 185.13,-129.91 282.55,-129.91zm-4702.71 1312.08c-175.38,-220.84 -289.05,-428.7 -328.02,-604.08 -16.24,-74.7 -19.48,-139.65 -9.74,-198.11 6.49,-51.96 25.98,-97.43 51.96,-136.41 61.71,-87.69 165.63,-142.9 285.8,-142.9 120.16,0 227.34,51.96 285.8,142.9 25.98,38.97 45.46,84.44 51.96,136.41 9.74,58.46 6.49,126.66 -9.75,198.11 -38.97,172.13 -152.64,379.99 -328.02,604.08zm1295.84 152.64c-22.73,168.89 -136.41,315.03 -295.54,379.99 -77.95,32.48 -162.39,42.22 -246.83,32.48 -81.2,-9.75 -162.39,-35.73 -246.83,-84.44 -116.92,-64.95 -233.84,-165.64 -370.24,-315.03 214.35,-263.06 344.26,-503.4 392.98,-717.75 22.73,-100.68 25.98,-191.62 16.24,-276.06 -12.99,-81.2 -42.22,-155.89 -87.69,-220.84 -100.68,-146.15 -269.56,-230.59 -457.93,-230.59 -188.37,0 -357.25,87.69 -457.93,230.59 -45.47,64.95 -74.7,139.65 -87.68,220.84 -12.99,84.44 -9.75,178.63 16.24,276.06 48.72,214.35 181.87,457.93 392.98,721 -133.16,149.4 -253.32,250.07 -370.24,315.03 -84.44,48.72 -165.63,74.7 -246.83,84.44 -87.68,9.74 -172.13,-3.25 -246.83,-32.48 -159.14,-64.95 -272.81,-211.1 -295.54,-379.98 -9.74,-81.2 -3.25,-162.39 29.23,-253.33 9.74,-32.47 25.98,-64.95 42.22,-103.93 22.73,-51.96 48.72,-107.17 74.7,-162.39l3.25 -6.49c224.1,-483.91 464.43,-977.57 714.5,-1458.23l9.74 -19.49c25.98,-48.72 51.96,-100.68 77.95,-149.4 25.98,-51.96 55.21,-100.68 90.94,-142.9 68.2,-77.95 159.14,-120.17 259.82,-120.17 100.68,0 191.62,42.22 259.82,120.17 35.73,42.22 64.95,90.93 90.94,142.9 25.98,48.72 51.96,100.68 77.95,149.4l9.74 19.49c246.83,483.91 487.16,977.57 711.25,1461.48l0 3.25c25.98,51.96 48.72,110.42 74.7,162.39 16.24,38.97 32.47,71.45 42.22,103.93 25.98,84.44 35.72,165.63 22.73,250.07z"/>
 </g>
</svg>
