<?xml version="1.0" encoding="UTF-8"?>
<!DOCTYPE svg PUBLIC "-//W3C//DTD SVG 1.1//EN" "http://www.w3.org/Graphics/SVG/1.1/DTD/svg11.dtd">
<!-- Creator: CorelDRAW -->
<svg xmlns="http://www.w3.org/2000/svg" xml:space="preserve" width="196.37mm" height="32.6212mm" version="1.1" style="shape-rendering:geometricPrecision; text-rendering:geometricPrecision; image-rendering:optimizeQuality; fill-rule:evenodd; clip-rule:evenodd"
viewBox="0 0 7202.77 1196.53"
 xmlns:xlink="http://www.w3.org/1999/xlink"
 xmlns:xodm="http://www.corel.com/coreldraw/odm/2003">
 <defs>
  <style type="text/css">
   <![CDATA[
    .fil0 {fill:white;fill-rule:nonzero}
   ]]>
  </style>
 </defs>
 <g id="Layer_x0020_1">
  <metadata id="CorelCorpID_0Corel-Layer"/>
  <path class="fil0" d="M2825.18 109.47c-0.01,-60.46 49.01,-109.47 109.47,-109.47 60.46,0 109.47,49.01 109.47,109.47 -2.2,58.87 -50.57,105.45 -109.47,105.45 -58.91,0 -107.27,-46.58 -109.47,-105.45z"/>
  <path class="fil0" d="M4552.48 839.59c0,-60.76 48.95,-109.86 109.25,-109.86 60.59,0.06 109.67,49.19 109.67,109.78 0,60.59 -49.08,109.72 -109.67,109.78 -60.23,0 -109.25,-49.17 -109.25,-109.78l0 0.07z"/>
  <g>
   <path class="fil0" d="M1028.51 792.1c-94.23,0 -159.79,-74.87 -159.79,-181.9 0,-106.96 65.56,-181.75 159.87,-181.75 94.76,0 161.01,74.79 161.01,181.75 0,108.71 -64.8,181.9 -161.09,181.9zm0 -523.52c-199.44,0 -344.21,143.71 -344.21,341.62 0,197.99 144.85,341.62 344.21,341.62 200.27,0 345.58,-143.63 345.58,-341.54 0,-197.99 -145.31,-341.69 -345.5,-341.69l-0.08 0zm1584.65 358.77c-6.94,-13.42 -15.72,-25.82 -26.07,-36.82l-6.1 -6.33 6.4 -6.1c9.15,-9.68 18.53,-21.12 27.52,-34.38l176.11 -261.65 -213.77 0 -132.27 204.7c-7.47,10.98 -22.57,16.47 -45.21,16.47l-30.11 0 0 -386.98c0,-77.38 -48.26,-87.9 -100.33,-87.9l-89.19 0 0.23 913.4 189.37 0 0 -274 17.76 0c21.58,0 36.21,2.52 43,14.26l104.45 197.15c29.2,53.52 58.24,62.59 112.98,62.59l145.08 0 -108.1 -178.7 -71.66 -135.7 -0.07 0zm919.26 -360.29c-96.36,0 -157.81,42.84 -192.26,79.06l-11.44 11.59 -4.12 -15.78c-10.06,-38.8 -44.22,-60.07 -95.52,-60.07l-84.85 0 0.54 659.68 188.07 0 0 -304.03c0,-29.73 3.81,-55.5 11.74,-79.06 20.89,-71.28 79.28,-115.57 152.25,-115.57 58.7,0 81.65,31.03 81.65,111.08l0 287.34c0,68.31 31.64,100.25 100.03,100.25l89.5 0 -0.3 -419.61c0,-166.65 -81.35,-254.78 -235.27,-254.78l0 -0.07zm-595.49 15.02l-89.12 0 0.61 510.1 0 149.58 95.07 0 3.35 0.15 44.37 -0.15 44.06 0 0 -0.23 0.31 0 0.38 -559.2c0,-67.47 -32.25,-100.18 -98.95,-100.18l-0.08 -0.08zm-1169.78 510.03c-94.23,0 -159.87,-74.87 -159.87,-181.9 0,-106.96 65.64,-181.75 159.95,-181.75 94.53,0 161.01,74.79 161.01,181.75 0,108.71 -64.8,181.9 -161.01,181.9l-0.08 0zm0 -523.52c-199.58,0 -344.44,143.71 -344.44,341.62 0,197.99 144.86,341.62 344.51,341.62 199.97,0 345.58,-143.63 345.58,-341.54 0,-197.99 -145.61,-341.69 -345.58,-341.69l-0.07 0z"/>
  </g>
  <path class="fil0" d="M5798.19 792.1c-94.23,0 -159.95,-74.87 -159.95,-181.9 0,-106.96 65.72,-181.75 159.95,-181.75 94.69,0 161.09,74.79 161.09,181.75 0,108.71 -64.8,181.9 -161.09,181.9zm0 -523.52c-199.58,0 -344.36,143.71 -344.36,341.62 0,197.99 144.77,341.62 344.36,341.62 200.05,0 345.58,-143.63 345.58,-341.54 0,-197.99 -145.61,-341.69 -345.58,-341.69z"/>
  <path class="fil0" d="M4164.21 763.05c-102.85,0 -139.44,-89.66 -139.44,-173.74 0,-37.05 9.38,-157.73 129.6,-157.73 59.7,0 139.21,17.07 139.21,163.91 0,138.52 -70.36,167.57 -129.37,167.57zm-70.51 433.48l74.94 0c150.3,-12.15 309.37,-98.4 309.37,-311.12l0.68 -605.09 -87.46 0 0.01 0c-35.68,0 -63.13,14.26 -76.92,40.25l-5.18 10.06 -8.69 -7.63c-30.35,-26.23 -84.78,-57.4 -173.14,-57.4 -175.88,0 -294.27,132.12 -294.27,328.58 0,196.39 122.51,333.61 297.78,333.61 59.84,0 107.19,-14.03 144.7,-42.39l14.48 -10.9 0 18.3c0,88.13 -56.95,136.77 -160.25,136.77 -50.24,0 -95.91,-12.2 -126.55,-23.33 -39.79,-12.05 -63.28,-2.06 -79.36,37.97l-14.94 36.9 -21.12 53.97 13.04 6.94c55.79,29.56 125.72,49.1 192.88,54.51z"/>
  <path class="fil0" d="M328.19 784.55l-153.08 -0.15 0 -182.97c0,-39.19 15.17,-59.46 48.64,-64.19l104.45 0c74.48,0 122.67,46.96 122.74,122.97 -0.07,78.07 -47.04,124.26 -122.74,124.26l0 0.08zm-153.08 -493.71l0 -48.18c0,-42.16 17.84,-62.21 56.95,-64.8l78.37 0c67.16,0 107.42,40.18 107.42,107.49 0,51.23 -27.6,111.08 -104.98,111.08l-137.76 0 0 -105.59zm348.56 182.66l-27.67 -15.55 24.17 -20.66c28.13,-24.17 75.17,-78.53 75.17,-172.3 0,-143.63 -111.31,-236.33 -283.68,-236.33l-219.11 0c-51.2,1.87 -91.93,43.6 -92.55,94.84l0 814.97 315.54 0c191.58,0 315.24,-104.29 315.24,-265.84 0,-86.99 -39.95,-161.32 -107.12,-199.13z"/>
  <g>
   <path class="fil0" d="M6983.82 269.27c-78.64,0.29 -152.91,36.27 -201.88,97.81l-13.57 17.23 -10.67 -19.29c-34.92,-63.51 -94.84,-95.75 -178.16,-95.75 -87.44,0 -146.07,48.79 -173.29,77.76l-17.84 19.29 -6.86 -25.39c-9.91,-36.59 -42.46,-56.64 -91.71,-56.64l-79.06 0 -0.76 657.16 179.54 0 0 -290.08c0,-25.46 3.2,-50.55 9.53,-76.85 17.15,-70.14 64.27,-145.54 143.48,-137.99 48.79,4.72 72.73,42.46 72.73,115.35l0 389.57 180.83 0 0 -290.08c0,-31.79 2.97,-55.58 10.14,-79.36 14.48,-66.94 63.73,-135.55 140.13,-135.55 55.35,0 75.78,31.26 75.78,115.42l0 293.51c0,66.33 29.58,96.06 95.98,96.06l84.47 0 0.15 -419.53c0,-167.64 -73.8,-252.65 -218.95,-252.65l0 0zm-1634.06 444c-0.54,0.68 -77.76,82.1 -179.54,82.1 -92.7,0 -186.32,-56.87 -186.32,-183.81 0,-109.63 72.58,-186.24 176.56,-186.24 33.7,0 72.12,12.04 78.14,32.4l0.84 3.43c7.9,28.81 34.16,48.73 64.04,48.56l98.35 0.15 0 -86c0,-113.44 -144.32,-154.6 -241.37,-154.6 -207.67,0 -358.32,144.54 -358.32,343.67 0,198.98 148.97,343.37 354.5,343.37 178.24,0 275.21,-117.18 276.13,-118.32l5.18 -6.4 -77.91 -129.22 -10.3 10.9 -0 0z"/>
  </g>
 </g>
</svg>
