<?xml version="1.0" encoding="UTF-8"?>
<!DOCTYPE svg PUBLIC "-//W3C//DTD SVG 1.1//EN" "http://www.w3.org/Graphics/SVG/1.1/DTD/svg11.dtd">
<!-- Creator: CorelDRAW -->
<svg xmlns="http://www.w3.org/2000/svg" xml:space="preserve" width="167.279mm" height="167.279mm" version="1.1" style="shape-rendering:geometricPrecision; text-rendering:geometricPrecision; image-rendering:optimizeQuality; fill-rule:evenodd; clip-rule:evenodd"
viewBox="0 0 16631.5 16631.5"
 xmlns:xlink="http://www.w3.org/1999/xlink"
 xmlns:xodm="http://www.corel.com/coreldraw/odm/2003">
 <defs>
  <style type="text/css">
   <![CDATA[
    .fil0 {fill:#5F5D59}
    .fil2 {fill:#A6A6A6;fill-rule:nonzero}
    .fil1 {fill:#F2F2F2;fill-rule:nonzero}
   ]]>
  </style>
 </defs>
 <g id="Layer_x0020_1">
  <metadata id="CorelCorpID_0Corel-Layer"/>
  <rect class="fil0" x="0" y="0" width="16631.49" height="16631.5"/>
  <polygon class="fil1" points="12752.83,11737.4 12752.83,5101.06 13606.07,5101.06 13606.07,11737.4 "/>
  <polygon class="fil2" points="8445.02,12182.95 10464.35,4627.08 11289.13,4627.08 9269.82,12182.95 "/>
  <path class="fil1" d="M3862.3 8637.3l1336.73 0c474.11,0 835.9,-109.07 1085.6,-327.07 249.58,-218.02 374.44,-567.26 374.44,-1047.63 0,-518.22 -126.44,-889.52 -379.26,-1113.91 -252.72,-224.39 -613.06,-336.59 -1080.78,-336.59l-1336.73 0 0 2825.2zm-853.24 3100.1l0 -6636.34 2161.53 0c790.08,0 1377.85,184.88 1763.36,554.62 385.64,369.74 578.35,895.9 578.35,1578.48 0,657.28 -192.71,1174.05 -578.35,1550.05 -385.52,376.12 -973.28,564.11 -1763.36,564.11l-1308.3 0 0 2389.08 -853.24 0z"/>
 </g>
</svg>
