<svg xmlns="http://www.w3.org/2000/svg" xml:space="preserve" width="573.935mm" height="280.582mm" version="1.1" style="shape-rendering:geometricPrecision; text-rendering:geometricPrecision; image-rendering:optimizeQuality; fill-rule:evenodd; clip-rule:evenodd"
viewBox="0 0 34788.84 17007.34"
 xmlns:xlink="http://www.w3.org/1999/xlink"
 xmlns:xodm="http://www.corel.com/coreldraw/odm/2003">
 <defs>
  <style type="text/css">
   <![CDATA[
    .fil0 {fill:white}
   ]]>
  </style>
 </defs>
 <g id="Vrstva_x0020_1">
  <metadata id="CorelCorpID_0Corel-Layer"/>
  <polygon class="fil0" points="1832.01,12424.93 2178.21,13728.01 3308.19,13728.01 2394.59,14531.01 2740.8,15829.29 1832.01,15021.47 923.21,15829.29 1269.42,14531.01 355.83,13728.01 1485.8,13728.01 "/>
  <polygon class="fil0" points="14776.25,12415.31 15122.45,13718.39 16252.42,13713.58 15338.83,14516.59 15689.84,15819.67 14776.25,15011.86 13867.45,15819.67 14218.47,14516.59 13304.87,13713.58 14430.04,13718.39 "/>
  <polygon class="fil0" points="6140.34,12424.93 6486.55,13728.01 7611.72,13723.2 6698.12,14526.21 7049.13,15829.29 6140.34,15021.47 5226.75,15829.29 5577.76,14526.21 4664.16,13723.2 5794.13,13728.01 "/>
  <polygon class="fil0" points="10415.02,12415.31 10761.22,13718.39 11886.39,13718.39 10972.79,14516.59 11323.81,15819.67 10415.02,15011.86 9501.42,15819.67 9852.44,14516.59 8938.84,13718.39 10068.81,13718.39 "/>
  <path class="fil0" d="M6601.95 7299.16l0 0 158.68 4.81c125.02,4.81 250.04,4.81 375.06,4.81 105.78,0 216.38,-4.81 322.17,-4.81l86.55 0 91.36 442.37c19.23,91.36 43.27,177.91 62.51,269.27l538.54 2178.21 0 0c14.43,57.7 28.85,115.4 38.47,173.1 57.7,-173.1 120.21,-351.01 182.72,-524.12l697.22 -1957.02c19.23,-57.7 38.47,-115.4 57.7,-177.91l0 -4.81c33.66,-100.98 62.51,-206.76 96.17,-307.74l28.85 -91.36 76.93 0c120.21,4.81 245.23,4.81 365.44,4.81 115.4,0 230.8,-4.81 346.21,-4.81l187.53 -4.81 -278.89 697.22 -1211.72 3207.21 -158.68 456.8 -72.13 0c-129.82,-4.81 -254.85,-4.81 -384.67,-4.81 -134.64,0 -269.27,4.81 -403.91,4.81l-81.74 0 -105.78 -480.84c-48.09,-187.53 -96.17,-375.06 -144.25,-562.58l-427.95 -1639.67 -442.37 -1658.9 -9.62 144.25c-33.66,596.24 -57.7,1192.49 -76.93,1788.73 -24.04,750.11 -33.66,1505.03 -43.27,2259.95l0 149.06 -250.04 -4.81 -418.33 0c-52.89,0 -105.78,0 -153.87,4.81l-120.21 4.81 9.62 -163.48c38.47,-697.22 67.32,-1394.44 91.36,-2091.66 19.23,-543.35 33.66,-1091.51 33.66,-1634.86l-4.81 -471.22 480.84 9.62c110.59,0 226,-4.81 336.59,-4.81l115.4 0 9.6 -9.63z"/>
  <path class="fil0" d="M913.6 9727.41l-14.43 591.43c-4.81,293.31 -14.43,586.63 -14.43,879.94 0,100.98 0,206.76 0,307.74l0 153.87 -432.76 -9.62c-110.59,0 -221.19,4.81 -331.78,4.81l-120.21 4.81 48.09 -865.52 52.89 -1557.93 28.85 -1129.98c0,-100.98 0,-206.76 0,-307.74 0,-115.4 0,-230.8 0,-346.21l0 -153.87 115.4 4.81c153.87,4.81 307.74,4.81 456.8,4.81 129.82,0 259.65,-4.81 389.48,-9.62 134.64,-4.81 269.27,-9.62 403.91,-9.62 149.06,0 341.4,4.81 480.84,67.32 115.4,48.09 221.19,129.82 307.74,235.61 91.36,110.59 158.68,240.42 201.96,389.48 52.89,168.3 76.93,346.21 76.93,528.92 0,278.89 -52.89,538.54 -158.68,774.15 -105.78,235.61 -254.85,413.52 -447.18,524.12 -192.34,115.4 -399.1,168.3 -610.67,168.3 -115.4,0 -230.8,-19.23 -341.4,-43.27l-72.13 -19.23 -14.43 -96.17c-4.81,-28.85 -9.62,-62.51 -14.43,-91.36l9.62 0.02zm48.09 -1514.65c-14.43,283.69 -24.04,562.58 -28.85,846.28l19.23 4.81c81.74,24.04 168.3,33.66 250.04,33.66 91.36,0 187.53,-14.43 274.08,-62.51 67.32,-38.47 125.02,-100.98 163.48,-182.72 43.27,-91.36 62.51,-192.34 62.51,-298.12 0,-57.7 -9.62,-115.4 -24.04,-168.3 -14.43,-43.27 -33.66,-76.93 -57.7,-105.78 -28.85,-28.85 -62.51,-48.09 -96.17,-57.7 -62.51,-19.23 -134.64,-19.23 -192.34,-19.23 -81.74,0 -163.48,0 -245.23,4.81 -38.47,0 -81.74,4.81 -125.02,4.81l0 0.01z"/>
  <path class="fil0" d="M4101.58 10780.45c-48.09,-139.44 -100.98,-283.69 -153.87,-423.14l-264.46 -721.26c-24.04,-67.32 -48.09,-129.82 -72.13,-197.14l-43.27 2216.67 -451.99 -9.62c-110.59,0 -221.19,4.81 -331.78,4.81l-125.02 4.81 14.43 -168.3c48.09,-673.18 76.93,-1351.17 100.98,-2029.15 19.23,-673.18 33.66,-1346.35 33.66,-2014.72l0 -149.06 110.59 4.81c149.06,4.81 293.31,4.81 442.37,4.81 125.02,0 250.04,-4.81 375.06,-9.62 129.82,-4.81 264.46,-9.62 394.29,-9.62 158.68,0 317.35,9.62 476.03,38.47 144.25,28.85 283.69,91.36 408.71,201.96 115.4,100.98 206.76,230.8 269.27,394.29 62.51,163.48 86.55,346.21 86.55,533.74 0,120.21 -9.62,240.42 -33.66,355.82 -19.23,110.59 -52.89,216.38 -96.17,317.35 -43.27,96.17 -91.36,187.53 -153.87,264.46 -52.89,67.32 -110.59,129.82 -177.91,177.91 -62.51,48.09 -129.82,81.74 -192.34,110.59 -43.27,19.23 -91.36,38.47 -134.64,52.89l86.55 230.8c86.55,226 182.72,447.18 274.08,668.37l221.19 524.12c38.47,86.55 72.13,187.53 110.59,278.89l86.55 221.19 -187.53 -4.81c-120.21,-4.81 -235.61,-4.81 -355.82,-4.81 -125.02,0 -250.04,4.81 -375.06,4.81l-76.93 0 -269.27 -879.94 4.81 9.64zm-480.84 -1673.33l72.13 19.23c81.74,19.23 168.3,33.66 250.04,33.66 105.78,0 206.76,-19.23 307.74,-72.13 76.93,-43.27 144.25,-105.78 187.53,-201.96 43.27,-91.36 67.32,-192.34 67.32,-298.12 0,-57.7 -9.62,-115.4 -24.04,-173.1 -19.23,-52.89 -48.09,-91.36 -81.74,-120.21 -48.09,-43.27 -105.78,-62.51 -158.68,-72.13 -76.93,-14.43 -149.06,-19.23 -226,-19.23 -57.7,0 -120.21,0 -177.91,4.81 -57.7,0 -120.21,0 -177.91,4.81l-28.85 899.17 -9.62 -4.81z"/>
  <path class="fil0" d="M12626.89 8616.67l687.61 2514.8 153.87 533.74 -495.26 -9.62c-129.82,0 -254.85,4.81 -384.67,4.81l-86.55 0 -24.04 -110.59c-48.09,-235.61 -105.78,-471.22 -163.48,-706.84 -52.89,-211.57 -110.59,-418.33 -168.3,-629.9l-1019.39 0c-163.48,447.18 -322.17,899.17 -471.22,1355.97l-28.85 91.36 -153.87 -4.81 -399.1 -4.81c-86.55,0 -173.1,4.81 -259.65,4.81l-192.34 4.81 96.17 -226c187.53,-442.37 365.44,-894.36 538.54,-1346.35l581.81 -1500.22c153.87,-394.29 307.74,-793.39 451.99,-1197.3l28.85 -86.55 72.13 0c134.64,4.81 269.27,4.81 408.71,4.81 134.64,0 274.08,0 408.71,-4.81l81.74 -4.81 341.4 1317.51 -4.81 -0.01zm-1254.99 677.99l649.13 0 -245.23 -1009.77 -129.82 336.59 -274.08 677.99 0 -4.81z"/>
  <path class="fil0" d="M15170.53 8227.19l-19.23 403.91 -62.51 2086.85 -4.81 346.21c0,149.06 0,298.12 0,447.18l0 149.06 -298.12 -4.81 -399.1 0c-38.47,0 -72.13,0 -110.59,4.81l-120.21 0 57.7 -1029 48.09 -1288.65 28.85 -1115.55 -38.47 0 -144.25 4.81 -134.64 0 -629.9 24.04 4.81 -163.48c9.62,-216.38 19.23,-427.95 19.23,-644.33l0 -149.06 110.59 0c442.37,4.81 889.56,9.62 1331.93,4.81l793.39 -4.81 543.35 -4.81 -9.62 158.68c-9.62,211.57 -24.04,427.95 -24.04,639.52l0 153.87 -115.4 -4.81c-254.85,-14.43 -509.69,-24.04 -764.54,-24.04l-67.32 0 4.81 9.61z"/>
  <path class="fil0" d="M21306.07 14622.37l81.74 -3298.57c4.81,-158.68 4.81,-317.35 4.81,-471.22l0 -221.19 149.06 4.81c134.64,4.81 274.08,9.62 408.71,9.62 134.64,0 269.27,-4.81 403.91,-9.62l158.68 -4.81 -81.74 1827.2 -86.55 2726.37 -38.47 1822.39 -144.25 -4.81c-168.3,-4.81 -341.4,-9.62 -509.69,-9.62 -182.72,0 -360.63,4.81 -543.35,9.62l-86.55 0 -43.27 -110.59c-72.13,-187.53 -144.25,-379.87 -216.38,-567.39 -163.48,-394.29 -336.59,-783.77 -504.88,-1173.25 -216.38,-500.08 -427.95,-1009.77 -634.71,-1514.65 -76.93,-192.34 -158.68,-379.87 -235.61,-572.2 -19.23,629.9 -33.66,1264.61 -52.89,1894.51 -14.43,610.67 -24.04,1221.33 -33.66,1832l-4.81 216.38 -144.25 -4.81c-129.82,-4.81 -259.65,-9.62 -389.48,-9.62 -139.44,0 -283.69,4.81 -423.14,9.62l-163.48 4.81 19.23 -245.23c43.27,-577.01 67.32,-1154.02 86.55,-1735.84l67.32 -2130.12c19.23,-682.79 33.66,-1365.59 33.66,-2043.57l0 -221.19 149.06 4.81c187.53,4.81 375.06,9.62 562.58,9.62 168.3,0 331.78,-4.81 500.08,-9.62l86.55 0 43.27 110.59c288.51,750.11 591.43,1490.61 899.17,2226.29 230.8,548.16 456.8,1101.12 677.99,1654.09l4.79 -4.81z"/>
  <path class="fil0" d="M16492.85 16766.92c43.27,-870.32 76.93,-1740.64 105.78,-2610.97l442.37 -586.63 -427.95 -4.81c19.23,-750.11 38.47,-1505.03 38.47,-2250.33l-4.81 -687.61 625.09 9.62c144.25,0 293.31,-4.81 437.56,-9.62l158.68 -4.81 -14.43 235.61c-48.09,870.32 -76.93,1745.45 -96.17,2615.77 -28.85,1101.12 -43.27,2197.44 -52.89,3298.57l0 216.38 -567.39 -9.62c-168.3,0 -336.59,4.81 -500.08,9.62l-158.68 4.81 9.62 -235.61 4.82 9.62z"/>
  <path class="fil0" d="M30855.57 16863.09l0 4.81 0 0 -1206.91 0 0 0 0 -4.81 -105.78 0 -827.05 4.81 9.62 -5572.95c-19.23,-48.09 -43.27,-96.17 -62.51,-144.25 -1038.62,-644.33 -2793.69,-1389.63 -4082.34,-2019.53l-12487.44 -6053.79c-1567.54,586.63 -3481.29,1654.09 -4986.32,2389.78 -293.31,144.25 -514.5,250.04 -702.03,336.59l0 0 -6332.68 0 14.43 -4.81 11939.28 -5798.94 22763.01 11145.9 -2683.09 0 4.81 5712.39 -1096.32 4.81c0,4.81 -91.36,4.81 -149.06,0l-9.61 0z"/>
  <path class="fil0" d="M25926.95 14622.37l81.74 -3298.57c4.81,-158.68 4.81,-317.35 4.81,-471.22l0 -221.19 149.06 4.81c134.64,4.81 274.08,9.62 408.71,9.62 125.02,0 245.23,-4.81 370.25,-9.62l187.53 76.93 -76.93 1745.45 -86.55 2726.37 -38.47 1822.39 -144.25 -4.81c-168.3,-4.81 -341.4,-9.62 -509.69,-9.62 -182.72,0 -360.63,4.81 -543.35,9.62l-86.55 0 -43.27 -110.59c-72.13,-187.53 -144.25,-379.87 -216.38,-567.39 -163.48,-394.29 -336.59,-783.77 -504.88,-1173.25 -216.38,-500.08 -427.95,-1009.77 -634.71,-1514.65 -76.93,-192.34 -158.68,-379.87 -235.61,-572.2 -19.23,629.9 -33.66,1264.61 -52.89,1894.51 -14.43,610.67 -24.04,1221.33 -33.66,1832l-4.81 216.38 -144.25 -4.81c-129.82,-4.81 -259.65,-9.62 -389.48,-9.62 -139.44,0 -283.69,4.81 -423.14,9.62l-163.48 4.81 19.23 -245.23c43.27,-577.01 67.32,-1154.02 86.55,-1735.84l67.32 -2130.12c19.23,-682.79 33.66,-1365.59 33.66,-2043.57l0 -221.19 149.06 4.81c187.53,4.81 375.06,9.62 562.58,9.62 168.3,0 331.78,-4.81 500.08,-9.62l86.55 0 43.27 110.59c288.51,750.11 591.43,1490.61 899.17,2226.29 230.8,548.16 456.8,1101.12 677.99,1654.09l4.78 -4.8z"/>
 </g>
</svg>
